<svg xmlns="http://www.w3.org/2000/svg" viewBox="0 0 600 600" width="200" height="200">
  <defs>
    <linearGradient id="g-slate-main" x1="0" x2="1" y1="0" y2="1">
      <stop offset="0" stop-color="#2EE7C6"/>
      <stop offset="0.55" stop-color="#5CE0FF"/>
      <stop offset="1" stop-color="#7B61FF"/>
    </linearGradient>
    <radialGradient id="r-slate" cx="30%" cy="30%" r="80%">
      <stop offset="0" stop-color="#FFFFFF" stop-opacity="0.28"/>
      <stop offset="1" stop-color="#000000" stop-opacity="0"/>
    </radialGradient>
    <filter id="glow-slate" x="-120%" y="-120%" width="340%" height="340%">
      <feGaussianBlur stdDeviation="14" result="b"/>
      <feMerge>
        <feMergeNode in="b"/>
        <feMergeNode in="SourceGraphic"/>
      </feMerge>
    </filter>
  </defs>

  <g transform="translate(300,300)">
    <circle cx="0" cy="0" r="260" fill="url(#r-slate)"/>
    <g transform="rotate(-10)">
      <rect x="-200" y="-160" width="380" height="260" rx="34" fill="url(#g-slate-main)" filter="url(#glow-slate)"/>
      <rect x="-200" y="-160" width="380" height="260" rx="34" fill="none" stroke="rgba(255,255,255,0.08)" stroke-width="14"/>
      <path d="M -110 -12 C -40 -140, 220 -120, 176 -6 C 140 66, 0 76, 70 232 C 166 420, -38 428, -118 260"
            fill="none" stroke="#0A0B0F" stroke-width="32" stroke-linecap="round" stroke-linejoin="round"/>
      <g transform="translate(154,128)">
        <circle cx="0" cy="0" r="20" fill="#FFFFFF" opacity="0.98"/>
        <circle cx="-88" cy="-56" r="14" fill="#FFFFFF"/>
        <circle cx="-22" cy="-142" r="12.5" fill="#FFFFFF"/>
        <path d="M -88 -56 L -22 -142 L 0 0" fill="none" stroke="rgba(255,255,255,0.92)" stroke-width="9" stroke-linecap="round" stroke-linejoin="round"/>
      </g>
    </g>
    <ellipse cx="28" cy="-80" rx="200" ry="68" fill="rgba(255,255,255,0.045)"/>
  </g>
</svg>
